<?xml version="1.0" encoding="UTF-8" standalone="no"?>
<!DOCTYPE svg PUBLIC "-//W3C//DTD SVG 1.1//EN" "http://www.w3.org/Graphics/SVG/1.1/DTD/svg11.dtd">
<svg width="100%" height="100%" viewBox="0 0 256 256" version="1.1" xmlns="http://www.w3.org/2000/svg" xmlns:xlink="http://www.w3.org/1999/xlink" xml:space="preserve" xmlns:serif="http://www.serif.com/" style="fill-rule:evenodd;clip-rule:evenodd;stroke-linecap:round;stroke-linejoin:round;stroke-miterlimit:1.5;">
    <g transform="matrix(3.04121,0,0,3.04121,-233.132,-63.2343)">
        <g transform="matrix(1.17537,0,0,1.17537,67.1204,-0.381375)">
            <rect x="19.227" y="29.096" width="49.392" height="49.392" style="fill:none;stroke:rgb(169,91,164);stroke-width:4.66px;"/>
            <g transform="matrix(0.26909,0,0,0.26909,14.0531,57.368)">
                <rect x="19.227" y="29.096" width="49.392" height="49.392" style="fill:none;stroke:rgb(169,91,164);stroke-width:17.33px;"/>
            </g>
            <g transform="matrix(0.237885,0,0,0.237885,7.94776,66.5226)">
                <rect x="19.227" y="29.096" width="49.392" height="49.392" style="fill:rgb(169,91,164);"/>
            </g>
            <g transform="matrix(0.237885,0,0,0.237885,59.001,66.5226)">
                <rect x="19.227" y="29.096" width="49.392" height="49.392" style="fill:rgb(169,91,164);"/>
            </g>
            <g transform="matrix(0.237885,0,0,0.237885,7.94776,15.5313)">
                <rect x="19.227" y="29.096" width="49.392" height="49.392" style="fill:rgb(169,91,164);"/>
            </g>
            <g transform="matrix(0.237885,0,0,0.237885,59.001,15.5313)">
                <rect x="19.227" y="29.096" width="49.392" height="49.392" style="fill:rgb(169,91,164);"/>
            </g>
        </g>
        <g transform="matrix(3.19796,1.84634,-1.75844,3.0457,120.37,51.9098)">
            <g transform="matrix(1,0,0,1,-12,-12)">
                <path d="M20,19.88L20,22L18.2,20.83L13.41,11.83C14.07,11.62 14.67,11.28 15.19,10.83L20,19.88M15,7C15,8.646 13.646,10 12,10L11.56,10L5.8,20.83L4,22L4,19.88L9.79,9C8.69,7.77 8.79,5.87 10.03,4.76C10.57,4.28 11.27,4 12,4L12,2C12.549,2 13,2.451 13,3L13,4.18C14.2,4.6 15,5.73 15,7M13,7C13,6.451 12.549,6 12,6C11.451,6 11,6.451 11,7C11,7.549 11.451,8 12,8C12.549,8 13,7.549 13,7Z" style="fill-rule:nonzero;"/>
            </g>
        </g>
        <g transform="matrix(1.02384,0,0,1.02384,4.20302,-65.2193)">
            <path d="M78.292,85.591C79.739,80.333 105.7,98.179 119.192,112.784C119.192,112.784 114.44,112.865 114.441,118.598C114.441,118.598 76.335,92.703 78.292,85.591Z" style="fill:rgb(58,164,220);"/>
            <path d="M123.071,116.794C123.071,116.794 118.656,116.845 119.25,121.727C119.25,121.727 122.919,125.276 126.281,124.812C126.281,124.812 123.445,131.836 130.713,138.174C137.982,144.511 149.868,140.132 152.346,139.372C152.346,139.372 146.047,136.644 143.929,132.183C141.811,127.722 141.414,125.345 138.486,122.871C135.557,120.396 128.963,121.013 128.258,122.04C128.258,122.04 124.741,120.858 123.071,116.794Z" style="fill:rgb(58,164,220);"/>
        </g>
    </g>
</svg>
